# xmcd CD database file
#
# Track frame offsets:
#	150
#	69763
#	121965
#	158730
#	175300
#	259948
#	285920
#
# Disc length: 3894 seconds
#
# Revision: 0
# Processed by: cddbd v1.5.2PL0 Copyright (c) Steve Scherf et al.
# Submitted via: CDex 1.70beta2
#
DISCID=560f3407
DTITLE=O'Keefe - Stanyek - Walton - Whitehead - Unbalancing Act
DYEAR=1998
DGENRE=Jazz
TTITLE0=Semi-Breakable Containers
TTITLE1=Tenebrae
TTITLE2=Warp Soup
TTITLE3=Sonia
TTITLE4=Heeboyoyo
TTITLE5=17x
TTITLE6=Micro-Major (Swells)
EXTD=YEAR: 1998
EXTT0=
EXTT1=
EXTT2=
EXTT3=
EXTT4=
EXTT5=
EXTT6=
PLAYORDER=
